<?xml version="1.0" encoding="utf-8"?>
<svg version="1.1" xmlns:xlink="http://www.w3.org/1999/xlink" width="29px" height="26px" xmlns="http://www.w3.org/2000/svg">
  <defs>
    <mask fill="white" id="clip3">
      <path d="M 27.0580357142857 5.38776837996096  C 28.3526785714286 7.05118195619171  29 8.86402081977879  29 10.8262849707222  C 29 12.7885491216656  28.3526785714286 14.6013879852527  27.0580357142857 16.2648015614834  C 25.7633928571429 17.9282151377142  24.0048363095238 19.242029928432  21.7823660714286 20.206245933637  C 19.5598958333333 21.1704619388419  17.1324404761905 21.6525699414444  14.5 21.6525699414444  C 13.7447916666667 21.6525699414444  12.9626116071429 21.607460420733  12.1534598214286 21.5172413793103  C 10.0172991071429 23.4907829104316  7.53590029761905 24.8553459119497  4.70926339285714 25.6109303838647  C 4.18061755952381 25.7688137063544  3.56566220238095 25.8928648883106  2.86439732142857 25.9830839297332  C 2.68098958333333 26.0056386900889  2.51646205357143 25.9548904792887  2.37081473214286 25.8308392973325  C 2.22516741071429 25.7067881153763  2.13076636904762 25.5432661027977  2.08761160714286 25.3402732595966  L 2.08761160714286 25.3233571893299  C 2.05524553571429 25.2782476686185  2.05254836309524 25.2105833875515  2.07952008928571 25.1203643461288  C 2.10649181547619 25.0301453047061  2.11728050595238 24.973758403817  2.11188616071429 24.9512036434613  C 2.10649181547619 24.9286488831056  2.13076636904762 24.8750813272609  2.18470982142857 24.7905009759271  L 2.28180803571429 24.6382563435264  C 2.28180803571429 24.6382563435264  2.31956845238095 24.5903274777706  2.39508928571429 24.4944697462589  C 2.47061011904762 24.3986120147473  2.51376488095238 24.3478638039471  2.52455357142857 24.3422251138582  C 2.60007440476191 24.2520060724355  2.76729910714286 24.0574712643678  3.02622767857143 23.7586206896552  C 3.28515625 23.4597701149425  3.47126116071429 23.2454998915637  3.58454241071429 23.1158100195185  C 3.69782366071429 22.9861201474734  3.86504836309524 22.7633918889612  4.08621651785714 22.4476252439818  C 4.30738467261905 22.1318585990024  4.48270089285714 21.8442854044676  4.61216517857143 21.5849056603774  C 4.74162946428571 21.3255259162871  4.88727678571429 20.992843201041  5.04910714285714 20.5868575146389  C 5.2109375 20.1808718282368  5.35119047619048 19.7523313814791  5.46986607142857 19.3012361743656  C 3.77604166666667 18.2975493385383  2.4409412202381 17.0570375189764  1.46456473214286 15.5797007156799  C 0.488188244047619 14.1023639123834  0 12.5178919973975  0 10.8262849707222  C 0 9.36022554760356  0.382998511904762 7.95901106050748  1.14899553571429 6.62264150943396  C 1.91499255952381 5.28627195836044  2.9453125 4.13315983517675  4.23995535714286 3.16330513988289  C 5.53459821428571 2.19345044458902  7.07738095238095 1.42376924745174  8.86830357142857 0.854261548471047  C 10.6592261904762 0.284753849490347  12.5364583333333 0  14.5 0  C 17.1324404761905 0  19.5598958333333 0.482108002602472  21.7823660714286 1.44632400780742  C 24.0048363095238 2.41054001301236  25.7633928571429 3.72435480373021  27.0580357142857 5.38776837996096  Z " fill-rule="evenodd" />
    </mask>
  </defs>
  <g transform="matrix(1 0 0 1 -340 -715 )">
    <path d="M 27.0580357142857 5.38776837996096  C 28.3526785714286 7.05118195619171  29 8.86402081977879  29 10.8262849707222  C 29 12.7885491216656  28.3526785714286 14.6013879852527  27.0580357142857 16.2648015614834  C 25.7633928571429 17.9282151377142  24.0048363095238 19.242029928432  21.7823660714286 20.206245933637  C 19.5598958333333 21.1704619388419  17.1324404761905 21.6525699414444  14.5 21.6525699414444  C 13.7447916666667 21.6525699414444  12.9626116071429 21.607460420733  12.1534598214286 21.5172413793103  C 10.0172991071429 23.4907829104316  7.53590029761905 24.8553459119497  4.70926339285714 25.6109303838647  C 4.18061755952381 25.7688137063544  3.56566220238095 25.8928648883106  2.86439732142857 25.9830839297332  C 2.68098958333333 26.0056386900889  2.51646205357143 25.9548904792887  2.37081473214286 25.8308392973325  C 2.22516741071429 25.7067881153763  2.13076636904762 25.5432661027977  2.08761160714286 25.3402732595966  L 2.08761160714286 25.3233571893299  C 2.05524553571429 25.2782476686185  2.05254836309524 25.2105833875515  2.07952008928571 25.1203643461288  C 2.10649181547619 25.0301453047061  2.11728050595238 24.973758403817  2.11188616071429 24.9512036434613  C 2.10649181547619 24.9286488831056  2.13076636904762 24.8750813272609  2.18470982142857 24.7905009759271  L 2.28180803571429 24.6382563435264  C 2.28180803571429 24.6382563435264  2.31956845238095 24.5903274777706  2.39508928571429 24.4944697462589  C 2.47061011904762 24.3986120147473  2.51376488095238 24.3478638039471  2.52455357142857 24.3422251138582  C 2.60007440476191 24.2520060724355  2.76729910714286 24.0574712643678  3.02622767857143 23.7586206896552  C 3.28515625 23.4597701149425  3.47126116071429 23.2454998915637  3.58454241071429 23.1158100195185  C 3.69782366071429 22.9861201474734  3.86504836309524 22.7633918889612  4.08621651785714 22.4476252439818  C 4.30738467261905 22.1318585990024  4.48270089285714 21.8442854044676  4.61216517857143 21.5849056603774  C 4.74162946428571 21.3255259162871  4.88727678571429 20.992843201041  5.04910714285714 20.5868575146389  C 5.2109375 20.1808718282368  5.35119047619048 19.7523313814791  5.46986607142857 19.3012361743656  C 3.77604166666667 18.2975493385383  2.4409412202381 17.0570375189764  1.46456473214286 15.5797007156799  C 0.488188244047619 14.1023639123834  0 12.5178919973975  0 10.8262849707222  C 0 9.36022554760356  0.382998511904762 7.95901106050748  1.14899553571429 6.62264150943396  C 1.91499255952381 5.28627195836044  2.9453125 4.13315983517675  4.23995535714286 3.16330513988289  C 5.53459821428571 2.19345044458902  7.07738095238095 1.42376924745174  8.86830357142857 0.854261548471047  C 10.6592261904762 0.284753849490347  12.5364583333333 0  14.5 0  C 17.1324404761905 0  19.5598958333333 0.482108002602472  21.7823660714286 1.44632400780742  C 24.0048363095238 2.41054001301236  25.7633928571429 3.72435480373021  27.0580357142857 5.38776837996096  Z " fill-rule="nonzero" fill="#ffffff" stroke="none" transform="matrix(1 0 0 1 340 715 )" />
    <path d="M 27.0580357142857 5.38776837996096  C 28.3526785714286 7.05118195619171  29 8.86402081977879  29 10.8262849707222  C 29 12.7885491216656  28.3526785714286 14.6013879852527  27.0580357142857 16.2648015614834  C 25.7633928571429 17.9282151377142  24.0048363095238 19.242029928432  21.7823660714286 20.206245933637  C 19.5598958333333 21.1704619388419  17.1324404761905 21.6525699414444  14.5 21.6525699414444  C 13.7447916666667 21.6525699414444  12.9626116071429 21.607460420733  12.1534598214286 21.5172413793103  C 10.0172991071429 23.4907829104316  7.53590029761905 24.8553459119497  4.70926339285714 25.6109303838647  C 4.18061755952381 25.7688137063544  3.56566220238095 25.8928648883106  2.86439732142857 25.9830839297332  C 2.68098958333333 26.0056386900889  2.51646205357143 25.9548904792887  2.37081473214286 25.8308392973325  C 2.22516741071429 25.7067881153763  2.13076636904762 25.5432661027977  2.08761160714286 25.3402732595966  L 2.08761160714286 25.3233571893299  C 2.05524553571429 25.2782476686185  2.05254836309524 25.2105833875515  2.07952008928571 25.1203643461288  C 2.10649181547619 25.0301453047061  2.11728050595238 24.973758403817  2.11188616071429 24.9512036434613  C 2.10649181547619 24.9286488831056  2.13076636904762 24.8750813272609  2.18470982142857 24.7905009759271  L 2.28180803571429 24.6382563435264  C 2.28180803571429 24.6382563435264  2.31956845238095 24.5903274777706  2.39508928571429 24.4944697462589  C 2.47061011904762 24.3986120147473  2.51376488095238 24.3478638039471  2.52455357142857 24.3422251138582  C 2.60007440476191 24.2520060724355  2.76729910714286 24.0574712643678  3.02622767857143 23.7586206896552  C 3.28515625 23.4597701149425  3.47126116071429 23.2454998915637  3.58454241071429 23.1158100195185  C 3.69782366071429 22.9861201474734  3.86504836309524 22.7633918889612  4.08621651785714 22.4476252439818  C 4.30738467261905 22.1318585990024  4.48270089285714 21.8442854044676  4.61216517857143 21.5849056603774  C 4.74162946428571 21.3255259162871  4.88727678571429 20.992843201041  5.04910714285714 20.5868575146389  C 5.2109375 20.1808718282368  5.35119047619048 19.7523313814791  5.46986607142857 19.3012361743656  C 3.77604166666667 18.2975493385383  2.4409412202381 17.0570375189764  1.46456473214286 15.5797007156799  C 0.488188244047619 14.1023639123834  0 12.5178919973975  0 10.8262849707222  C 0 9.36022554760356  0.382998511904762 7.95901106050748  1.14899553571429 6.62264150943396  C 1.91499255952381 5.28627195836044  2.9453125 4.13315983517675  4.23995535714286 3.16330513988289  C 5.53459821428571 2.19345044458902  7.07738095238095 1.42376924745174  8.86830357142857 0.854261548471047  C 10.6592261904762 0.284753849490347  12.5364583333333 0  14.5 0  C 17.1324404761905 0  19.5598958333333 0.482108002602472  21.7823660714286 1.44632400780742  C 24.0048363095238 2.41054001301236  25.7633928571429 3.72435480373021  27.0580357142857 5.38776837996096  Z " stroke-width="4" stroke="#000000" fill="none" transform="matrix(1 0 0 1 340 715 )" mask="url(#clip3)" />
  </g>
</svg>