<?xml version="1.0" encoding="utf-8"?>
<svg version="1.1" xmlns:xlink="http://www.w3.org/1999/xlink" width="33px" height="29px" xmlns="http://www.w3.org/2000/svg">
  <defs>
    <mask fill="white" id="clip4">
      <path d="M 17.3102678571429 28.66015625  C 17.0892857142857 28.88671875  16.8191964285714 29  16.5 29  C 16.1808035714286 29  15.9107142857143 28.88671875  15.6897321428571 28.66015625  L 4.19866071428571 17.2942708333333  C 4.07589285714286 17.1935763888889  3.90708705357143 17.0299479166667  3.69224330357143 16.8033854166667  C 3.47739955357143 16.5768229166667  3.13671875 16.1646050347222  2.67020089285714 15.5667317708333  C 2.20368303571429 14.9688585069444  1.78627232142857 14.3552517361111  1.41796875 13.7259114583333  C 1.04966517857143 13.0965711805556  0.721261160714286 12.3350694444444  0.432756696428571 11.44140625  C 0.144252232142857 10.5477430555556  0 9.67925347222222  0 8.8359375  C 0 6.06684027777778  0.779575892857143 3.90190972222222  2.33872767857143 2.34114583333333  C 3.89787946428571 0.780381944444444  6.05245535714286 0  8.80245535714286 0  C 9.56361607142857 0  10.3401227678571 0.13530815972222  11.1319754464286 0.405924479166668  C 11.923828125 0.676540798611109  12.6604352678571 1.04155815972222  13.341796875 1.5009765625  C 14.0231584821429 1.96039496527778  14.609375 2.39149305555555  15.1004464285714 2.79427083333333  C 15.5915178571429 3.19704861111111  16.0580357142857 3.625  16.5 4.078125  C 16.9419642857143 3.625  17.4084821428571 3.19704861111111  17.8995535714286 2.79427083333333  C 18.390625 2.39149305555555  18.9768415178571 1.96039496527778  19.658203125 1.5009765625  C 20.3395647321429 1.04155815972222  21.076171875 0.676540798611109  21.8680245535714 0.405924479166668  C 22.6598772321429 0.13530815972222  23.4363839285714 0  24.1975446428571 0  C 26.9475446428571 0  29.1021205357143 0.780381944444444  30.6612723214286 2.34114583333333  C 32.2204241071429 3.90190972222222  33 6.06684027777778  33 8.8359375  C 33 11.6176215277778  31.5943080357143 14.4496527777778  28.7829241071429 17.33203125  L 17.3102678571429 28.66015625  Z " fill-rule="evenodd" />
    </mask>
  </defs>
  <g transform="matrix(1 0 0 1 -615 -660 )">
    <path d="M 17.3102678571429 28.66015625  C 17.0892857142857 28.88671875  16.8191964285714 29  16.5 29  C 16.1808035714286 29  15.9107142857143 28.88671875  15.6897321428571 28.66015625  L 4.19866071428571 17.2942708333333  C 4.07589285714286 17.1935763888889  3.90708705357143 17.0299479166667  3.69224330357143 16.8033854166667  C 3.47739955357143 16.5768229166667  3.13671875 16.1646050347222  2.67020089285714 15.5667317708333  C 2.20368303571429 14.9688585069444  1.78627232142857 14.3552517361111  1.41796875 13.7259114583333  C 1.04966517857143 13.0965711805556  0.721261160714286 12.3350694444444  0.432756696428571 11.44140625  C 0.144252232142857 10.5477430555556  0 9.67925347222222  0 8.8359375  C 0 6.06684027777778  0.779575892857143 3.90190972222222  2.33872767857143 2.34114583333333  C 3.89787946428571 0.780381944444444  6.05245535714286 0  8.80245535714286 0  C 9.56361607142857 0  10.3401227678571 0.13530815972222  11.1319754464286 0.405924479166668  C 11.923828125 0.676540798611109  12.6604352678571 1.04155815972222  13.341796875 1.5009765625  C 14.0231584821429 1.96039496527778  14.609375 2.39149305555555  15.1004464285714 2.79427083333333  C 15.5915178571429 3.19704861111111  16.0580357142857 3.625  16.5 4.078125  C 16.9419642857143 3.625  17.4084821428571 3.19704861111111  17.8995535714286 2.79427083333333  C 18.390625 2.39149305555555  18.9768415178571 1.96039496527778  19.658203125 1.5009765625  C 20.3395647321429 1.04155815972222  21.076171875 0.676540798611109  21.8680245535714 0.405924479166668  C 22.6598772321429 0.13530815972222  23.4363839285714 0  24.1975446428571 0  C 26.9475446428571 0  29.1021205357143 0.780381944444444  30.6612723214286 2.34114583333333  C 32.2204241071429 3.90190972222222  33 6.06684027777778  33 8.8359375  C 33 11.6176215277778  31.5943080357143 14.4496527777778  28.7829241071429 17.33203125  L 17.3102678571429 28.66015625  Z " fill-rule="nonzero" fill="#ffffff" stroke="none" transform="matrix(1 0 0 1 615 660 )" />
    <path d="M 17.3102678571429 28.66015625  C 17.0892857142857 28.88671875  16.8191964285714 29  16.5 29  C 16.1808035714286 29  15.9107142857143 28.88671875  15.6897321428571 28.66015625  L 4.19866071428571 17.2942708333333  C 4.07589285714286 17.1935763888889  3.90708705357143 17.0299479166667  3.69224330357143 16.8033854166667  C 3.47739955357143 16.5768229166667  3.13671875 16.1646050347222  2.67020089285714 15.5667317708333  C 2.20368303571429 14.9688585069444  1.78627232142857 14.3552517361111  1.41796875 13.7259114583333  C 1.04966517857143 13.0965711805556  0.721261160714286 12.3350694444444  0.432756696428571 11.44140625  C 0.144252232142857 10.5477430555556  0 9.67925347222222  0 8.8359375  C 0 6.06684027777778  0.779575892857143 3.90190972222222  2.33872767857143 2.34114583333333  C 3.89787946428571 0.780381944444444  6.05245535714286 0  8.80245535714286 0  C 9.56361607142857 0  10.3401227678571 0.13530815972222  11.1319754464286 0.405924479166668  C 11.923828125 0.676540798611109  12.6604352678571 1.04155815972222  13.341796875 1.5009765625  C 14.0231584821429 1.96039496527778  14.609375 2.39149305555555  15.1004464285714 2.79427083333333  C 15.5915178571429 3.19704861111111  16.0580357142857 3.625  16.5 4.078125  C 16.9419642857143 3.625  17.4084821428571 3.19704861111111  17.8995535714286 2.79427083333333  C 18.390625 2.39149305555555  18.9768415178571 1.96039496527778  19.658203125 1.5009765625  C 20.3395647321429 1.04155815972222  21.076171875 0.676540798611109  21.8680245535714 0.405924479166668  C 22.6598772321429 0.13530815972222  23.4363839285714 0  24.1975446428571 0  C 26.9475446428571 0  29.1021205357143 0.780381944444444  30.6612723214286 2.34114583333333  C 32.2204241071429 3.90190972222222  33 6.06684027777778  33 8.8359375  C 33 11.6176215277778  31.5943080357143 14.4496527777778  28.7829241071429 17.33203125  L 17.3102678571429 28.66015625  Z " stroke-width="4" stroke="#000000" fill="none" transform="matrix(1 0 0 1 615 660 )" mask="url(#clip4)" />
  </g>
</svg>